<?xml version="1.0" encoding="utf-8"?>
<!-- Generator: Adobe Illustrator 26.5.0, SVG Export Plug-In . SVG Version: 6.00 Build 0)  -->
<svg version="1.0" id="Camada_1" xmlns="http://www.w3.org/2000/svg" xmlns:xlink="http://www.w3.org/1999/xlink" x="0px" y="0px"
	 viewBox="0 0 1920 1080" style="enable-background:new 0 0 1920 1080;" xml:space="preserve">
<style type="text/css">
	.st0{fill:#005FF2;}
	.st1{fill:url(#SVGID_1_);}
	.st2{fill:#00E698;}
</style>
<g>
	<g>
		<path class="st0" d="M584.9,466.8h3.1c10.3-16,25.6-24,46.2-24c18.9,0,32.9,6.1,42.2,18.2c9.2,12.1,13.9,28,13.9,47.7v89.9H644
			v-84.6c0-8.2-2-14.9-5.8-20.2c-3.9-5.2-10-7.8-18.2-7.8c-10.5,0-18.4,4-23.9,12c-5.4,8-8.2,18.5-8.2,31.4v69.3h-46.2V447.7h43.1
			V466.8z"/>
		<path class="st0" d="M863.2,561.9c-7.4,12.9-17.1,23.1-29.1,30.5c-12,7.4-26.5,11.1-43.6,11.1c-11.7,0-22.5-2-32.5-6
			c-10-4-18.6-9.6-26-16.8c-7.4-7.2-13.1-15.6-17.2-25.4c-4.1-9.7-6.2-20.5-6.2-32.2c0-10.9,2-21.2,6.2-30.9
			c4.1-9.7,9.8-18.3,17.1-25.5c7.3-7.3,15.8-13.1,25.5-17.4c9.7-4.3,20.4-6.5,31.9-6.5c12.5,0,23.5,2.1,33.1,6.2
			c9.5,4.1,17.5,9.7,23.9,16.8c6.4,7.1,11.2,15.4,14.5,24.9c3.3,9.5,4.9,19.8,4.9,30.6c0,1.6-0.1,3.3-0.2,4.9
			c-0.1,1.6-0.3,3.1-0.5,4.3c-0.2,1.4-0.3,2.8-0.3,4H753.6c2.3,9.8,6.9,17,13.9,21.5c7,4.5,14.8,6.8,23.4,6.8s15.7-1.8,21.4-5.5
			c5.6-3.7,10.1-8.4,13.4-14.2L863.2,561.9z M822.2,503.1c-0.4-2.5-1.4-5.1-2.9-8c-1.5-2.9-3.7-5.5-6.5-7.8
			c-2.8-2.4-6.2-4.3-10.2-5.8c-4-1.5-8.5-2.3-13.4-2.3c-7.2,0-13.9,2.1-20,6.2c-6.2,4.1-10.7,10.1-13.5,17.9H822.2z"/>
		<path class="st0" d="M1033.4,560c-7.4,13.5-17.2,24.2-29.4,31.9c-12.2,7.7-27,11.5-44.5,11.5c-11.7,0-22.5-2-32.5-6
			c-10-4-18.6-9.5-25.9-16.6c-7.3-7.1-12.9-15.5-16.9-25.4c-4-9.9-6-20.6-6-32.3s2-22.5,6-32.3c4-9.9,9.6-18.3,16.9-25.4
			c7.3-7.1,15.9-12.6,25.9-16.6c10-4,20.8-6,32.5-6c17.2,0,32.1,3.8,44.5,11.4c12.4,7.6,21.6,18.1,27.5,31.4L989,503.4
			c-3.3-5.9-7.2-10.4-11.9-13.2c-4.6-2.9-10.5-4.3-17.7-4.3c-10.1,0-18.4,3.3-25.1,10c-6.7,6.7-10,15.8-10,27.2
			c0,11.5,3.3,20.6,10,27.2c6.7,6.7,15,10,25.1,10c7.2,0,13.3-1.6,18.5-4.8c5.1-3.2,9.4-7.8,12.9-14L1033.4,560z"/>
		<path class="st0" d="M1046.4,486.5v-38.8v-46.2h46.2v46.2h37.2v38.8h-37.2V539c0,3.4,0.4,6.5,1.2,9.4c0.8,2.9,2.3,5.3,4.3,7.2
			c3.1,2.8,7.1,4.1,12,4.1c3.3,0,6-0.4,8.3-1.2c2.3-0.8,4.2-1.8,5.8-3.1l12.9,40c-5.3,2.5-11.1,4.4-17.2,5.8
			c-6.2,1.4-12.7,2.2-19.7,2.2c-16.2,0-29-4.8-38.5-14.5c-4.9-5-8.7-11.3-11.4-18.7c-2.7-7.4-4-15.7-4-24.7V486.5z"/>
		<path class="st0" d="M1241.9,585h-3.1c-4.9,5.3-10.5,9.7-16.8,13.2c-6.3,3.5-14.3,5.2-24.2,5.2c-7.6,0-14.7-1.2-21.4-3.7
			c-6.7-2.5-12.5-5.9-17.5-10.5c-5-4.5-9-10-11.9-16.3c-2.9-6.4-4.3-13.4-4.3-21.2c0-7.6,1.5-14.5,4.6-20.8
			c3.1-6.3,7.3-11.6,12.6-16.2c5.3-4.5,11.6-8,18.9-10.5c7.3-2.5,15.2-3.7,23.9-3.7c9.2,0,16.9,0.6,22.9,1.8
			c6,1.2,11.4,2.7,16.2,4.3v-4c0-6.6-2.7-12.2-8.2-16.8c-5.4-4.6-12.8-6.9-22-6.9c-13.3,0-24.8,5.4-34.5,16.3l-31.4-22.2
			c8.6-10.3,18.6-17.9,30-22.9c11.4-5,24-7.5,37.7-7.5c24.6,0,43.2,5.5,55.7,16.5c12.5,11,18.8,27.7,18.8,50v89.3h-46.2V585z
			 M1241.9,539.1c-4.7-1.8-9.4-3.3-14-4.3c-4.6-1-9.4-1.5-14.3-1.5c-8.2,0-14.4,1.7-18.5,5.1c-4.1,3.4-6.2,7.7-6.2,13.1
			c0,5.3,1.9,9.6,5.8,12.8c3.9,3.2,9,4.8,15.4,4.8c5.1,0,9.7-0.9,13.7-2.6c4-1.7,7.3-4,10-6.9c2.7-2.9,4.7-6.1,6-9.7
			C1241.2,546.1,1241.9,542.6,1241.9,539.1z"/>
		<linearGradient id="SVGID_1_" gradientUnits="userSpaceOnUse" x1="202" y1="522.4315" x2="524.9796" y2="522.4315">
			<stop  offset="0" style="stop-color:#00EEB2"/>
			<stop  offset="1" style="stop-color:#005FF2"/>
		</linearGradient>
		<path class="st1" d="M519,490.1c-4-9.9-9.6-18.3-16.9-25.4c-7.3-7.1-15.9-12.6-25.9-16.6c-10-4-20.8-6-32.5-6
			c-11.7,0-22.5,2-32.5,6c-10,4-18.6,9.5-25.9,16.6c-7.3,7.1-12.9,15.5-16.9,25.4c-2.4,5.8-4,12-5,18.5c-1-6.5-2.6-12.7-5-18.5
			c-4-9.9-9.6-18.3-16.9-25.4c-7.3-7.1-15.9-12.6-25.9-16.6c-10-4-20.8-6-32.5-6c-11.7,0-22.5,2-32.5,6c-10,4-18.6,9.5-25.9,16.6
			c-7.3,7.1-12.9,15.5-16.9,25.4c-4,9.8-6,20.6-6,32.3s2,22.5,6,32.3c4,9.8,9.6,18.3,16.9,25.4c7.3,7.1,15.9,12.6,25.9,16.6
			c10,4,20.8,6,32.5,6c11.7,0,22.5-2,32.5-6c10-4,18.6-9.5,25.9-16.6c7.3-7.1,12.9-15.5,16.9-25.4c2.4-5.8,4-12,5-18.5
			c1,6.5,2.6,12.7,5,18.5c4,9.8,9.6,18.3,16.9,25.4c7.3,7.1,15.9,12.6,25.9,16.6c10,4,20.8,6,32.5,6c11.7,0,22.5-2,32.5-6
			c10-4,18.6-9.5,25.9-16.6c7.3-7.1,12.9-15.5,16.9-25.4c4-9.9,6-20.6,6-32.3S523,500,519,490.1z M476,538
			c-1.8,4.6-4.4,8.5-7.7,11.7c-3.3,3.2-7,5.6-11.2,7.4c-4.2,1.7-8.7,2.6-13.4,2.6c-4.7,0-9.2-0.9-13.4-2.6
			c-4.2-1.7-7.9-4.2-11.2-7.4c0,0-0.1-0.1-0.1-0.1c-11-11.1-25.6-17.7-41.2-17.7H364h-1.1h-13.8c-15.6,0-30.2,6.6-41.2,17.7
			c0,0-0.1,0.1-0.1,0.1c-3.3,3.2-7,5.6-11.2,7.4c-4.2,1.7-8.7,2.6-13.4,2.6c-4.7,0-9.2-0.9-13.4-2.6c-4.2-1.7-8-4.2-11.2-7.4
			c-3.3-3.2-5.8-7.1-7.7-11.7c-1.8-4.6-2.8-9.8-2.8-15.5c0-5.7,0.9-10.9,2.8-15.4c1.8-4.5,4.4-8.4,7.7-11.7c3.3-3.3,7-5.8,11.2-7.5
			c4.2-1.7,8.7-2.6,13.4-2.6c4.7,0,9.2,0.9,13.4,2.6c4.2,1.7,7.9,4.3,11.2,7.5c0,0,0.1,0.1,0.1,0.1c10.8,11.1,25.5,17.5,41,17.5h0.9
			h13h1.1h13h0.9c15.5,0,30.2-6.4,41-17.5c0,0,0.1-0.1,0.1-0.1c3.3-3.3,7-5.8,11.2-7.5c4.2-1.7,8.7-2.6,13.4-2.6
			c4.7,0,9.2,0.9,13.4,2.6c4.2,1.7,8,4.3,11.2,7.5c3.3,3.3,5.8,7.2,7.7,11.7c1.8,4.5,2.8,9.6,2.8,15.4
			C478.8,528.2,477.9,533.4,476,538z"/>
	</g>
	<g>
		<path class="st2" d="M1460.5,478.1c-6.6-12.5-15.8-22.2-27.6-29c-11.8-6.8-24.9-10.2-39.6-10.2c-15.4,0-28.7,3.6-39.9,10.8
			c-11.2,7.2-19.3,16.3-24.5,27.1v-35.6h-20.5v238.3h20.5v-112c5.1,10.9,13.3,19.9,24.6,27.1c11.3,7.2,24.5,10.8,39.7,10.8
			c14.6,0,27.8-3.5,39.6-10.4c11.8-6.9,20.9-16.7,27.6-29.3c6.6-12.6,9.9-27.3,9.9-43.9C1470.5,505.2,1467.2,490.6,1460.5,478.1z
			 M1380.3,481.3c2.7-9.2,10.1-15.3,16.5-13.7c6.4,1.6,9.4,10.3,6.8,19.5c-2.7,9.2-10.1,15.3-16.5,13.7
			C1380.6,499.2,1377.6,490.4,1380.3,481.3z M1349,504.9c0.6-8.9,6.7-15.9,13.5-15.8c6.8,0.1,11.8,7.4,11.2,16.3
			c-0.6,8.9-6.7,15.9-13.5,15.8C1353.3,521,1348.3,513.7,1349,504.9z M1408.4,570.3c-6.8,5.9-17.3,5.6-22.6,0c-0.9-1-1.1-1-4.4-4.6
			c-1-1.2-2.2-2.2-4.3-3c-2-0.8-3.6-0.9-5.2-0.8c-4.9,0.3-5.1,0.2-6.4,0.2c-7.7,0.3-15.4-6.9-16.1-15.8c-1-13.6,14.2-17,17.6-18.4
			c7-2.9,9.6-7.7,11-9.8c5.6-8,13.9-8.5,19.9-6.3l0,0c0,0,0,0,0,0c0,0,0,0,0,0l0,0c5.8,2.6,11.4,8.8,9.7,18.5c-0.4,2.5-2,7.7,1,14.7
			C1410.2,548.2,1418.6,561.3,1408.4,570.3z M1411.4,490.3c4.5-8.4,12.8-12.5,18.5-9.1c5.7,3.4,6.6,12.9,2.1,21.3
			c-4.5,8.4-12.8,12.5-18.5,9.1C1407.9,508.3,1406.9,498.7,1411.4,490.3z M1437.8,541.3c-5.8,6.8-14.4,8.5-19.4,3.8
			c-4.9-4.7-4.3-14,1.5-20.7c5.8-6.8,14.4-8.5,19.4-3.8C1444.2,525.2,1443.5,534.5,1437.8,541.3z"/>
		<path class="st2" d="M1636.7,530.1h-134.3c0.6,12.3,3.6,22.7,8.9,31.4c5.3,8.7,12.3,15.3,21,19.7c8.7,4.4,18.2,6.7,28.5,6.7
			c13.4,0,24.7-3.3,33.9-9.8c9.2-6.5,15.3-15.3,18.2-26.4h21.9c-4,15.8-12.4,28.7-25.3,38.7c-12.9,10-29.2,15-48.8,15
			c-15.2,0-28.9-3.4-40.9-10.2c-12.1-6.8-21.5-16.5-28.3-29c-6.8-12.5-10.2-27.2-10.2-44c0-16.8,3.4-31.5,10.1-44.2
			c6.7-12.6,16.1-22.3,28.2-29c12-6.7,25.8-10.1,41.2-10.1c15.4,0,28.9,3.4,40.5,10.1c11.6,6.7,20.5,15.8,26.7,27.1
			c6.2,11.4,9.3,24,9.3,37.8C1637.3,520.9,1637.1,526.3,1636.7,530.1z M1609,482.4c-5-8.5-11.9-14.9-20.6-19.3
			c-8.7-4.3-18.2-6.5-28.5-6.5c-15.4,0-28.6,4.9-39.4,14.8c-10.9,9.9-16.9,23.8-18.1,41.8h113.8
			C1616.5,501.1,1614.1,490.9,1609,482.4z"/>
		<path class="st2" d="M1673.5,458.6v100.5c0,9.9,1.9,16.7,5.6,20.5c3.8,3.8,10.4,5.6,19.9,5.6h19V603h-22.2
			c-14.6,0-25.5-3.4-32.6-10.2c-7.1-6.8-10.7-18-10.7-33.6V458.6v-17.5v-40.6h21v40.6h44.5v17.5H1673.5z"/>
	</g>
</g>
</svg>
